<?xml version="1.0" encoding="UTF-8" standalone="no"?>
<svg viewBox="0 0 20 20" version="1.1" xmlns="http://www.w3.org/2000/svg" xmlns:xlink="http://www.w3.org/1999/xlink">
    <defs>
        <rect id="path-1" x="0" y="0" width="111" height="32" rx="4"></rect>
        <mask id="mask-2" maskContentUnits="userSpaceOnUse" maskUnits="objectBoundingBox" x="0" y="0" width="111" height="32">
            <use xlink:href="#path-1"></use>
        </mask>
    </defs>
    <g id="Diary" stroke="none" stroke-width="1" fill="none" fill-rule="evenodd">
        <g id="Like-/-Liked" transform="translate(-162.000000, -94.000000)" stroke="#42BD56">
            <g id="Like-btn-Copy" transform="translate(132.000000, 88.000000)">
                <use id="Rectangle-57" mask="url(#mask-2)" fill="#FFFFFF" xlink:href="#path-1"></use>
                <g id="heart-copy" transform="translate(30.000000, 6.000000)">
                    <path d="M13.1364273,4.00302214 C11.906954,3.9527829 10.7115064,4.53333314 9.99216671,5.41488817 C9.41087847,4.70249582 8.58816257,4.23527094 7.64218903,4.06783075 C7.08045748,3.95536663 6.39517963,4.01342884 5.8773965,4.16694558 C4.25339768,4.5813475 2.9843419,6.12286663 3.00014602,7.94163458 C3.01353261,9.47719678 3.6218466,10.485893 3.89914021,10.9895054 C5.70632962,14.2713834 9.99216671,16.5837518 9.99216671,16.5837518 C9.99216671,16.5837518 13.9488958,14.5859886 16.0773994,10.9895054 C16.4292033,10.3949958 17.0131255,9.14809391 16.999775,7.95161065 C16.9763936,5.85767525 15.3321164,4.09277094 13.1364273,4.00302214 Z" id="Page-1"></path>
                </g>
            </g>
        </g>
    </g>
</svg>